<?xml version="1.0" encoding="UTF-8"?>
<svg version="1.1" xmlns="http://www.w3.org/2000/svg" width="704" height="406">
<path d="M0 0 C0.66 0 1.32 0 2 0 C20.80859375 32.6015625 20.80859375 32.6015625 22.65820312 35.80761719 C23.89510728 37.95154067 25.13208754 40.09542026 26.36914062 42.23925781 C29.50958117 47.68192559 32.64868634 53.12535545 35.78515625 58.5703125 C41.80747329 69.02206199 47.84669337 79.46299548 53.9375 89.875 C59.35958699 99.14563931 64.70324012 108.45936699 70.02023315 117.79046631 C75.19086278 126.8626541 80.42511417 135.89572349 85.70214844 144.90649414 C90.61925604 153.31597672 95.45532382 161.77035167 100.27392578 170.23651123 C104.85051304 178.27730545 109.46803436 186.28931046 114.25878906 194.20483398 C117 198.78610974 117 198.78610974 117 201 C117.66 201 118.32 201 119 201 C119.24234375 200.33613281 119.4846875 199.67226562 119.734375 198.98828125 C121.32482206 195.23305902 123.25612436 191.74138773 125.25 188.1875 C125.68618652 187.40616699 126.12237305 186.62483398 126.57177734 185.81982422 C130.75915044 178.35765465 135.07699892 170.97276297 139.40332031 163.59057617 C143.98957799 155.75745932 148.5072661 147.88692251 153 140 C158.53951839 130.27856294 164.13375194 120.59104683 169.78344727 110.93310547 C175.93766742 100.40915375 182.02369996 89.84619863 188.10888672 79.28222656 C191.86028024 72.77128743 195.61690994 66.26336806 199.37255859 59.75488281 C202.51182246 54.31414664 205.64981497 48.87268523 208.78515625 43.4296875 C209.41808594 42.33140625 210.05101562 41.233125 210.703125 40.1015625 C211.86900321 38.0784209 213.03443721 36.05502318 214.19921875 34.03125 C215.34764881 32.03885738 216.55044824 30.07709012 217.7978363 28.14511108 C219.72059273 24.89979482 220.64330445 21.77686845 221.60194397 18.13735962 C223.96884175 10.84938723 227.08955447 3.94440594 234 0 C249.05033765 -5.14830205 267.45899343 -2.8513946 283.07478094 -2.43345451 C289.65116989 -2.28286208 296.22784755 -2.26928324 302.80569458 -2.24084473 C313.83448769 -2.17884621 324.85941019 -2.02521989 335.88623047 -1.81054688 C347.2369377 -1.58979997 358.5865408 -1.42015018 369.93896484 -1.31835938 C370.99084408 -1.30890133 370.99084408 -1.30890133 372.06397341 -1.29925221 C375.58241846 -1.26792832 379.10087125 -1.23760005 382.61932921 -1.20776653 C411.74884978 -0.95948791 440.87437061 -0.53544974 470 0 C469.03776394 1.76518392 468.07539764 3.53029685 467.11297607 5.29537964 C466.57707226 6.27833448 466.04116844 7.26128933 465.48902512 8.27403069 C458.48488423 21.09656331 451.34278536 33.85021087 443.88842773 46.41674805 C440.14652161 52.7283517 436.47567329 59.07992266 432.8125 65.4375 C431.85549194 67.09833618 431.85549194 67.09833618 430.87915039 68.79272461 C429.57110523 71.06337068 428.26324552 73.33412358 426.95556641 75.60498047 C423.80667946 81.0716998 420.65316736 86.53574887 417.5 92 C416.2499765 94.16665311 414.99997653 96.33331979 413.75 98.5 C401.25 120.16666667 388.75 141.83333333 376.25 163.5 C375.63116943 164.57266113 375.01233887 165.64532227 374.37475586 166.75048828 C373.12564482 168.91557071 371.87645871 171.08060982 370.62719727 173.24560547 C367.48797691 178.68615706 364.35009437 184.12747216 361.21484375 189.5703125 C355.19252671 200.02206199 349.15330663 210.46299548 343.0625 220.875 C337.98724877 229.55262241 332.97741233 238.26605568 328 247 C322.4599827 256.72115617 316.86625191 266.40894658 311.21655273 276.06689453 C305.06233258 286.59084625 298.97630004 297.15380137 292.89111328 307.71777344 C289.76319852 313.14659942 286.63141552 318.57319281 283.5 324 C282.24998121 326.16665583 280.99998122 328.3333225 279.75 330.5 C277.25 334.83333333 274.75 339.16666667 272.25 343.5 C271.63084717 344.5732251 271.01169434 345.6464502 270.3737793 346.75219727 C269.1279423 348.91159395 267.88201182 351.07093669 266.63598633 353.23022461 C263.44651047 358.75767597 260.25883115 364.28615121 257.07421875 369.81640625 C253.95370033 375.23496277 250.82615391 380.64941447 247.6953125 386.06201172 C246.0918951 388.84074516 244.49816527 391.62482273 242.90625 394.41015625 C242.00032871 395.98196034 241.09410279 397.5535889 240.1875 399.125 C239.5836145 400.1914978 239.5836145 400.1914978 238.9675293 401.27954102 C238.03447159 402.88694033 237.02546941 404.44992203 236 406 C235.34 406 234.68 406 234 406 C185.25 321.50000001 185.25 321.50000001 183.37475586 318.24951172 C182.12564482 316.08442929 180.87645871 313.91939018 179.62719727 311.75439453 C176.48797691 306.31384294 173.35009437 300.87252784 170.21484375 295.4296875 C164.19252696 284.97793844 158.15336763 274.53696861 152.0625 264.125 C146.20952361 254.11883627 140.44919843 244.06184118 134.71508789 233.98730469 C130.47302443 226.54035582 126.1790207 219.12753634 121.74121094 211.79516602 C119 207.21389026 119 207.21389026 119 205 C118.34 205 117.68 205 117 205 C116.75765625 205.66386719 116.5153125 206.32773438 116.265625 207.01171875 C114.67517794 210.76694098 112.74387564 214.25861227 110.75 217.8125 C110.31381348 218.59383301 109.87762695 219.37516602 109.42822266 220.18017578 C105.24084956 227.64234535 100.92300108 235.02723703 96.59667969 242.40942383 C92.01042201 250.24254068 87.4927339 258.11307749 83 266 C77.46048161 275.72143706 71.86624806 285.40895317 66.21655273 295.06689453 C60.06233258 305.59084625 53.97630004 316.15380137 47.89111328 326.71777344 C44.13971976 333.22871257 40.38309006 339.73663194 36.62744141 346.24511719 C33.48817754 351.68585336 30.35018503 357.12731477 27.21484375 362.5703125 C26.58191406 363.66859375 25.94898438 364.766875 25.296875 365.8984375 C24.13099679 367.9215791 22.96556279 369.94497682 21.80078125 371.96875 C20.65235119 373.96114262 19.44955176 375.92290988 18.2021637 377.85488892 C16.27940727 381.10020518 15.35669555 384.22313155 14.39805603 387.86264038 C12.03115825 395.15061277 8.91044553 402.05559406 2 406 C-13.05033765 411.14830205 -31.45899343 408.8513946 -47.07478094 408.43345451 C-53.65116989 408.28286208 -60.22784755 408.26928324 -66.80569458 408.24084473 C-77.83448769 408.17884621 -88.85941019 408.02521989 -99.88623047 407.81054688 C-111.2369377 407.58979997 -122.5865408 407.42015018 -133.93896484 407.31835938 C-134.64021767 407.31205401 -135.3414705 407.30574865 -136.06397341 407.29925221 C-139.58241846 407.26792832 -143.10087125 407.23760005 -146.61932921 407.20776653 C-175.74884978 406.95948791 -204.87437061 406.53544974 -234 406 C-233.03776394 404.23481608 -232.07539764 402.46970315 -231.11297607 400.70462036 C-230.57707226 399.72166552 -230.04116844 398.73871067 -229.48902512 397.72596931 C-222.48488423 384.90343669 -215.34278536 372.14978913 -207.88842773 359.58325195 C-204.14652161 353.2716483 -200.47567329 346.92007734 -196.8125 340.5625 C-195.85549194 338.90166382 -195.85549194 338.90166382 -194.87915039 337.20727539 C-193.57110523 334.93662932 -192.26324552 332.66587642 -190.95556641 330.39501953 C-187.80667946 324.9283002 -184.65316736 319.46425113 -181.5 314 C-180.2499765 311.83334689 -178.99997653 309.66668021 -177.75 307.5 C-166.5 288 -166.5 288 -155.25 268.5 C-154.63116943 267.42733887 -154.01233887 266.35467773 -153.37475586 265.24951172 C-152.12564482 263.08442929 -150.87645871 260.91939018 -149.62719727 258.75439453 C-146.48797691 253.31384294 -143.35009437 247.87252784 -140.21484375 242.4296875 C-134.19252671 231.97793801 -128.15330663 221.53700452 -122.0625 211.125 C-116.98724877 202.44737759 -111.97741233 193.73394432 -107 185 C-101.4599827 175.27884383 -95.86625191 165.59105342 -90.21655273 155.93310547 C-84.06233258 145.40915375 -77.97630004 134.84619863 -71.89111328 124.28222656 C-68.76319852 118.85340058 -65.63141552 113.42680719 -62.5 108 C-61.24998121 105.83334417 -59.99998122 103.6666775 -58.75 101.5 C-47.5 82 -47.5 82 -36.25 62.5 C-35.63084717 61.4267749 -35.01169434 60.3535498 -34.3737793 59.24780273 C-33.1279423 57.08840605 -31.88201182 54.92906331 -30.63598633 52.76977539 C-27.44651047 47.24232403 -24.25883115 41.71384879 -21.07421875 36.18359375 C-17.95370033 30.76503723 -14.82615391 25.35058553 -11.6953125 19.93798828 C-10.0918951 17.15925484 -8.49816527 14.37517727 -6.90625 11.58984375 C-6.00032871 10.01803966 -5.09410279 8.4464111 -4.1875 6.875 C-3.5836145 5.8085022 -3.5836145 5.8085022 -2.9675293 4.72045898 C-2.03447159 3.11305967 -1.02546941 1.55007797 0 0 Z " fill="#000000" transform="translate(234,0)"/>
</svg>
