<?xml version="1.0" encoding="UTF-8"?>
<svg version="1.1" xmlns="http://www.w3.org/2000/svg" width="960" height="80">
<path d="M0 0 C316.8 0 633.6 0 960 0 C960 26.4 960 52.8 960 80 C643.2 80 326.4 80 0 80 C0 53.6 0 27.2 0 0 Z " fill="#F9F9F9" transform="translate(0,0)"/>
<path d="M0 0 C167.31 0 334.62 0 507 0 C507 0.33 507 0.66 507 1 C505.98980537 0.97731143 505.98980537 0.97731143 504.95920277 0.95416451 C488.52305822 0.5926751 472.09012429 0.35454297 455.65041828 0.25128365 C447.69958528 0.19841213 439.75324034 0.10482404 431.80444336 -0.08691406 C424.87048208 -0.25406685 417.94058303 -0.34249174 411.00453347 -0.33897984 C407.33425523 -0.33980492 403.67361303 -0.37823903 400.00554848 -0.51125717 C384.77901271 -1.58546057 384.77901271 -1.58546057 371.46450424 4.22512054 C365.98519619 11.02970055 362.74085159 18.77744522 360 27 C379.8 27 399.6 27 420 27 C417.33915706 28.77389529 415.35840937 29.6820629 412.37890625 30.69921875 C411.45279541 31.01802002 410.52668457 31.33682129 409.57250977 31.6652832 C408.57920654 32.00261475 407.58590332 32.33994629 406.5625 32.6875 C404.47909876 33.40344827 402.39576675 34.119598 400.3125 34.8359375 C399.25933594 35.19655273 398.20617187 35.55716797 397.12109375 35.92871094 C392.4288119 37.53929704 387.74511219 39.17405386 383.0625 40.8125 C382.26593994 41.08989014 381.46937988 41.36728027 380.64868164 41.65307617 C376.47139948 43.11257645 372.31588736 44.61728174 368.17651367 46.1809082 C363.66941381 47.87707422 359.14695539 49.53144614 354.625 51.1875 C353.62855469 51.55552734 352.63210938 51.92355469 351.60546875 52.30273438 C350.65542969 52.65013672 349.70539063 52.99753906 348.7265625 53.35546875 C347.86627441 53.67153076 347.00598633 53.98759277 346.11962891 54.31323242 C344 55 344 55 342 55 C341.6596875 55.97066406 341.6596875 55.97066406 341.3125 56.9609375 C339.54283167 61.05856239 337.28614881 64.79733371 335 68.625 C334.54882812 69.388125 334.09765625 70.15125 333.6328125 70.9375 C331.8126894 74.00693836 329.98017161 77.02974259 328 80 C325.64845741 80.37259549 325.64845741 80.37259549 322.63140678 80.36914349 C320.91160302 80.3781032 320.91160302 80.3781032 319.15705574 80.38724393 C317.88665038 80.3785054 316.61624502 80.36976688 315.30734253 80.36076355 C313.95268006 80.36207071 312.59801831 80.36469549 311.24336064 80.36853105 C307.50806685 80.37526557 303.77302924 80.36320293 300.03776813 80.34819686 C296.014589 80.33528326 291.99142521 80.33962264 287.9682312 80.34190369 C280.99354483 80.34347939 274.01894244 80.33403922 267.04427719 80.31719017 C256.96000287 80.2928449 246.87576928 80.28499949 236.79146875 80.2812262 C220.43175691 80.27465467 204.07208986 80.25467453 187.71240234 80.22631836 C171.81722234 80.1987959 155.92205448 80.17755346 140.02685547 80.16479492 C138.55804181 80.16361267 138.55804181 80.16361267 137.05955516 80.16240653 C132.14732113 80.15849151 127.23508702 80.15470037 122.32285285 80.15097082 C81.54852879 80.11985309 40.77428754 80.06453827 0 80 C0 53.6 0 27.2 0 0 Z " fill="#FAFAFA" transform="translate(0,0)"/>
<path d="M0 0 C0.9960173 -0.06974533 1.99203461 -0.13949066 3.01823425 -0.21134949 C4.09591568 -0.2606813 5.17359711 -0.31001312 6.28393555 -0.36083984 C7.39750931 -0.41601273 8.51108307 -0.47118561 9.65840149 -0.5280304 C43.58819828 -1.89758692 43.58819828 -1.89758692 50.77075195 2.73828125 C55.78651553 7.57116341 58.06443011 13.38957473 60.11157227 19.94677734 C61.63130388 24.302696 64.11461829 27.77586935 66.7956543 31.49072266 C67.57214337 32.6601358 68.34704383 33.83060636 69.11987305 35.00244141 C70.67710729 37.19603071 72.11848152 39.01567537 74.1081543 40.80322266 C74.36556396 40.1095459 74.62297363 39.41586914 74.88818359 38.70117188 C76.25334355 35.45833643 77.88583039 32.4933876 79.62768555 29.43603516 C79.968134 28.83822235 80.30858246 28.24040955 80.65934753 27.6244812 C81.37806279 26.36462179 82.09841549 25.10569523 82.8203125 23.84765625 C83.91170265 21.94383789 84.99559535 20.03589356 86.07885742 18.12744141 C86.78218266 16.89671493 87.48594494 15.66623808 88.19018555 14.43603516 C88.82158447 13.33146973 89.4529834 12.2269043 90.10351562 11.08886719 C91.09581177 9.46247314 91.09581177 9.46247314 92.1081543 7.80322266 C92.43856216 7.1611235 92.76897003 6.51902435 93.10939026 5.85746765 C94.77825845 2.96570512 95.94291063 1.12986948 99.24778748 0.20343018 C101.9340084 -0.008768 104.5288532 0.01576796 107.22143555 0.11962891 C108.19098679 0.12953354 109.16053802 0.13943817 110.1594696 0.14964294 C113.2480875 0.18874607 116.33311586 0.27655968 119.4206543 0.36572266 C121.51760808 0.40084182 123.61461772 0.43277976 125.71166992 0.46142578 C130.84520878 0.53849505 135.97607361 0.65924974 141.1081543 0.80322266 C137.99448059 7.14711431 134.89109772 13.41769034 131.1706543 19.42822266 C127.6387243 25.20781493 124.20736719 31.03927597 120.84350586 36.91845703 C119.55067789 39.15218012 118.23171831 41.37096171 116.88842773 43.57470703 C113.4792333 49.23865969 110.7548072 54.46701463 108.8581543 60.81494141 C104.64859343 73.13619417 104.64859343 73.13619417 99.08642578 76.89453125 C90.59900007 80.79311184 79.79173653 79.96677401 70.6706543 79.92822266 C69.48025543 79.93074036 68.28985657 79.93325806 67.06338501 79.93585205 C63.59295561 79.90792738 60.140986 79.78829988 56.67456055 79.62353516 C55.61754944 79.59876099 54.56053833 79.57398682 53.47149658 79.54846191 C48.99400361 79.20846336 46.18207589 78.88461708 42.94381714 75.62382507 C41.14653823 73.08480106 39.60709835 70.5269558 38.1081543 67.80322266 C37.09657783 66.21525646 36.07711676 64.63225073 35.0456543 63.05712891 C34.06400057 61.49488684 33.08485386 59.9310668 32.1081543 58.36572266 C31.0718338 56.71459447 30.03537602 55.06355244 28.9987793 53.41259766 C28.50571289 52.625625 28.01264648 51.83865234 27.50463867 51.02783203 C24.72840028 46.60526486 21.9158074 42.20588491 19.1081543 37.80322266 C14.88948017 43.9039049 11.16413799 50.13874663 7.6706543 56.67822266 C6.32396839 59.19757339 4.970227 61.69932135 3.53271484 64.16821289 C2.02138923 66.81179323 2.02138923 66.81179323 0.99023438 69.86206055 C-0.59343492 73.47825594 -1.7490243 75.37232332 -4.8918457 77.80322266 C-12.13931884 79.6640728 -19.93366252 78.82913277 -27.3293457 78.49072266 C-29.41710819 78.43551312 -31.50501001 78.38532867 -33.59301758 78.34033203 C-38.69607505 78.21942366 -43.79243344 78.02984207 -48.8918457 77.80322266 C-47.60076379 74.41319544 -46.13403029 71.28161434 -44.3449707 68.12744141 C-43.83699951 67.22944824 -43.32902832 66.33145508 -42.80566406 65.40625 C-42.256604 64.44412598 -41.70754395 63.48200195 -41.1418457 62.49072266 C-40.56764893 61.47961426 -39.99345215 60.46850586 -39.40185547 59.42675781 C-34.68732732 51.1468079 -29.89656279 42.91204419 -25.07910156 34.69165039 C-20.5546715 26.96619399 -16.10403393 19.20074958 -11.70996094 11.40039062 C-11.25049072 10.58973145 -10.79102051 9.77907227 -10.31762695 8.94384766 C-9.72075073 7.88472168 -9.72075073 7.88472168 -9.11181641 6.80419922 C-5.17046959 0.3396648 -5.17046959 0.3396648 0 0 Z " fill="#010101" transform="translate(49.891845703125,1.19677734375)"/>
<path d="M0 0 C2.13215225 0.01665939 4.2643524 0.02796538 6.39656067 0.03417969 C10.86230589 0.06010313 15.32465287 0.12775708 19.78930664 0.22949219 C25.48051879 0.35911453 31.16962223 0.42065421 36.86213207 0.45504761 C42.32503648 0.49000213 47.78744986 0.55478173 53.25 0.625 C54.79096375 0.64255341 54.79096375 0.64255341 56.36305809 0.66046143 C86.30433412 1.06661489 86.30433412 1.06661489 97.45703125 9.375 C100.30505292 12.39562904 100.6991246 15.0366401 100.95703125 19.0625 C100.58446656 28.73485263 95.20840599 35.53519582 88.390625 41.98828125 C79.78845897 48.98684775 69.72990935 53.36607196 59.45703125 57.375 C62.09703125 64.305 64.73703125 71.235 67.45703125 78.375 C51.94703125 78.375 36.43703125 78.375 20.45703125 78.375 C14.45703125 63.375 14.45703125 63.375 14.45703125 61.375 C9.99743037 61.07522525 5.55048275 60.95981576 1.08203125 60.875 C-0.16964844 60.78863281 -1.42132812 60.70226563 -2.7109375 60.61328125 C-6.85019195 60.59160976 -9.70921654 60.76688433 -13.54296875 62.375 C-15.44556157 64.85051529 -16.69906576 67.59801031 -18.04296875 70.40625 C-21.67382695 77.66717704 -21.67382695 77.66717704 -25.82843018 79.24047852 C-32.57890523 80.40276802 -39.3722307 79.83301827 -46.16796875 79.375 C-48.24191275 79.29464723 -50.31615595 79.22165971 -52.390625 79.15625 C-57.44885026 78.98079457 -62.49259831 78.7054634 -67.54296875 78.375 C-66.28042197 75.03654201 -64.8515681 72.02052882 -63.00390625 68.96875 C-62.50503906 68.14117187 -62.00617187 67.31359375 -61.4921875 66.4609375 C-60.97269531 65.60757813 -60.45320312 64.75421875 -59.91796875 63.875 C-59.42167969 63.05257812 -58.92539062 62.23015625 -58.4140625 61.3828125 C-54.16491119 54.35495411 -49.85173736 47.36639384 -45.54296875 40.375 C-44.20947246 38.20843362 -42.87613812 36.04176756 -41.54296875 33.875 C-33.54296875 20.875 -33.54296875 20.875 -31.59944153 17.84814453 C-30.16533248 15.53986726 -29.19239901 13.50566223 -28.15971375 10.94482422 C-22.39402938 -1.91207034 -12.73184232 -0.37086176 0 0 Z " fill="#020202" transform="translate(858.54296875,0.625)"/>
<path d="M0 0 C1.47809505 0.00691345 1.47809505 0.00691345 2.98605061 0.01396656 C4.11767124 0.00709324 5.24929188 0.00021992 6.41520405 -0.00686169 C7.65741718 0.01111469 8.89963032 0.02909107 10.17948627 0.04761219 C12.14061108 0.04651699 12.14061108 0.04651699 14.14135456 0.04539967 C17.72818195 0.04396328 21.31417567 0.0733874 24.90080905 0.10826945 C28.64838783 0.13949683 32.39598509 0.1424608 36.1436739 0.14839649 C43.24111845 0.16394571 50.33817856 0.20498834 57.43545371 0.25514394 C65.51512173 0.31100422 73.59480798 0.33851549 81.67462099 0.36362112 C98.29601544 0.4159036 114.91702311 0.50386633 131.53812885 0.61523914 C131.1243549 1.36670216 130.71058094 2.11816517 130.28426838 2.89239979 C129.4715321 4.37410664 129.4715321 4.37410664 128.6423769 5.88574696 C128.10485294 6.86408497 127.56732899 7.84242298 127.01351643 8.8504076 C125.87849076 10.97741125 124.83976331 13.08358943 123.8701601 15.28711414 C120.71437866 21.67980251 118.0336861 24.95672394 111.34528828 27.29736805 C110.55427723 27.55179676 109.76326618 27.80622547 108.9482851 28.06836414 C107.23527512 28.65842318 105.52230425 29.24859577 103.80936909 29.83887196 C102.93400501 30.13233509 102.05864094 30.42579823 101.15675068 30.72815418 C97.84578203 31.84977872 94.56329392 33.04220493 91.2799654 34.24188709 C88.0561177 35.4198081 84.82575818 36.57935231 81.59574604 37.74023914 C79.97717137 38.3224322 78.35900489 38.90576135 76.74125385 39.49023914 C64.06680298 44.06939559 51.32863052 48.35173859 38.53812885 52.61523914 C68.73312885 53.11023914 68.73312885 53.11023914 99.53812885 53.61523914 C98.87812885 55.26523914 98.21812885 56.91523914 97.53812885 58.61523914 C97.28796355 59.36840569 97.03779825 60.12157225 96.78005219 60.89756203 C94.595255 67.30766892 91.89241088 73.2758781 86.53812885 77.61523914 C77.75592509 80.88445 67.79819149 79.89096727 58.56622624 79.54172397 C54.86869612 79.42215377 51.1708112 79.41172977 47.47164631 79.38924122 C40.48170357 79.33040325 33.49747183 79.1748381 26.51003426 78.98360091 C18.5494359 78.77050597 10.58855014 78.66659188 2.6258055 78.57138765 C-13.74008625 78.37329009 -30.10024794 78.03957755 -46.46187115 77.61523914 C-37.61237203 55.38726138 -37.61237203 55.38726138 -29.18843365 50.95508289 C-24.73534592 49.06443181 -20.13990111 47.81169868 -15.46187115 46.61523914 C-13.12600377 45.89423146 -10.79234382 45.16599763 -8.46187115 44.42773914 C-7.06968365 44.03521961 -7.06968365 44.03521961 -5.64937115 43.63477039 C-3.08759532 42.81537886 -0.67261301 41.9098229 1.81156635 40.89258289 C9.49310514 37.77258781 17.34057951 35.10623768 25.16312885 32.36523914 C33.26875385 29.51898914 33.26875385 29.51898914 41.53812885 26.61523914 C22.72812885 26.28523914 3.91812885 25.95523914 -15.46187115 25.61523914 C-14.66944705 22.44554277 -14.05554868 20.62221454 -12.50093365 17.90039539 C-12.11163677 17.21396961 -11.7223399 16.52754383 -11.32124615 15.82031727 C-10.9139024 15.11326649 -10.50655865 14.40621571 -10.08687115 13.67773914 C-9.68726177 12.97455555 -9.2876524 12.27137196 -8.87593365 11.54687977 C-7.74633443 9.56450746 -6.6115302 7.5860484 -5.46187115 5.61523914 C-5.05549766 4.76194932 -4.64912416 3.9086595 -4.23043633 3.02951241 C-2.46187115 0.61523914 -2.46187115 0.61523914 0 0 Z " fill="#020202" transform="translate(375.46187114715576,1.384760856628418)"/>
<path d="M0 0 C0.70689972 -0.00349457 1.41379944 -0.00698914 2.14212036 -0.0105896 C20.15265741 -0.06000373 42.30218478 0.11150319 56.0234375 13.25 C59.167639 17.29911802 59.85006133 20.97244731 59.98828125 26.0546875 C59.625 28.3125 59.625 28.3125 56.625 35.3125 C41.775 35.3125 26.925 35.3125 11.625 35.3125 C10.635 32.3425 10.635 32.3425 9.625 29.3125 C7.94000512 28.00641816 7.94000512 28.00641816 5.875 27.5 C5.22015625 27.28730469 4.5653125 27.07460938 3.890625 26.85546875 C-11.94651059 23.06001729 -31.29026744 24.05151248 -45.76171875 32.10546875 C-49.3634391 34.80021836 -52.36336871 38.28923743 -54.375 42.3125 C-54.87507794 45.77036015 -54.87507794 45.77036015 -54.375 49.3125 C-48.43226937 54.69809963 -38.98379808 54.70156562 -31.375 54.6875 C-30.46016846 54.68588867 -29.54533691 54.68427734 -28.6027832 54.68261719 C-17.27087002 54.48119606 -2.74811956 52.68561956 5.625 44.3125 C7.57388306 44.07199097 7.57388306 44.07199097 9.98291016 44.08544922 C10.88369293 44.08560028 11.78447571 44.08575134 12.71255493 44.08590698 C13.68655243 44.09622955 14.66054993 44.10655212 15.6640625 44.1171875 C16.66005463 44.1200174 17.65604675 44.12284729 18.68222046 44.12576294 C21.87160118 44.1369816 25.06070378 44.16208919 28.25 44.1875 C30.40885012 44.19752762 32.56770463 44.20665385 34.7265625 44.21484375 C40.02613699 44.23692639 45.32554863 44.27042042 50.625 44.3125 C40.24061595 61.85661533 18.98062656 70.17844924 0.09375 75.2109375 C-1.39415894 75.58485212 -2.88374604 75.95215738 -4.375 76.3125 C-5.06078125 76.47911133 -5.7465625 76.64572266 -6.453125 76.81738281 C-18.88774287 79.63971384 -31.50433795 79.59809677 -44.1875 79.625 C-45.43977386 79.63051376 -45.43977386 79.63051376 -46.71734619 79.63613892 C-85.09955804 79.72423851 -85.09955804 79.72423851 -98.375 67.3125 C-102.35514071 62.92413973 -103.76508979 59.61538214 -103.64453125 53.609375 C-102.17410034 41.07874634 -92.5297169 30.57548331 -83.41015625 22.66015625 C-73.4040528 14.92055757 -62.28600584 10.29536 -50.375 6.3125 C-49.48941406 6.00570313 -48.60382812 5.69890625 -47.69140625 5.3828125 C-32.28969135 0.60212019 -15.99612597 0.02526548 0 0 Z " fill="#020202" transform="translate(588.375,-0.3125)"/>
<path d="M0 0 C0.64431976 -0.00043808 1.28863953 -0.00087616 1.95248413 -0.00132751 C4.0737785 0.00075593 6.19427407 0.02406436 8.31542969 0.04760742 C9.78944466 0.053205 11.26346523 0.05747433 12.73748779 0.06047058 C16.61083475 0.07190676 20.48384244 0.10136303 24.35705566 0.13458252 C28.31188366 0.16531007 32.26676664 0.17898163 36.22167969 0.1940918 C43.97704243 0.22623421 51.73212596 0.27741532 59.48730469 0.34057617 C61.53269642 35.64732131 61.53269642 35.64732131 62.11230469 51.77807617 C62.17212524 53.40567871 62.17212524 53.40567871 62.2331543 55.06616211 C62.48308938 62.50302954 62.48730469 69.88993201 62.48730469 77.34057617 C47.96730469 77.34057617 33.44730469 77.34057617 18.48730469 77.34057617 C18.48730469 72.72057617 18.48730469 68.10057617 18.48730469 63.34057617 C10.80976591 63.17612761 3.13528155 63.0693873 -4.54393768 63.05816936 C-8.11205378 63.05077661 -11.67653328 63.02024768 -15.24365234 62.93261719 C-33.42655684 61.79662564 -33.42655684 61.79662564 -49.21618652 69.0453186 C-50.42592286 70.2542268 -51.62799242 71.47086042 -52.82189941 72.69540405 C-58.83640722 78.53942494 -64.48558312 78.66401134 -72.62438965 78.57987976 C-75.5908786 78.48212257 -78.54934932 78.319559 -81.51269531 78.15307617 C-83.55938358 78.08769765 -85.60627592 78.02841211 -87.65332031 77.9753418 C-92.6115939 77.83375957 -97.55982009 77.61051809 -102.51269531 77.34057617 C-99.76160778 74.54793944 -97.02827128 71.82843873 -93.98144531 69.36010742 C-93.34271484 68.84125977 -92.70398438 68.32241211 -92.04589844 67.7878418 C-91.03946289 66.97863281 -91.03946289 66.97863281 -90.01269531 66.15307617 C-88.95211914 65.29552734 -88.95211914 65.29552734 -87.87011719 64.4206543 C-82.59595522 60.17189196 -77.24234031 56.04040454 -71.85644531 51.93432617 C-68.0138247 48.97846416 -64.26522319 45.90945053 -60.51269531 42.84057617 C-55.71092777 38.91444854 -50.88278575 35.03874721 -45.95019531 31.27807617 C-40.63589468 27.22346162 -35.40447819 23.076866 -30.19287109 18.89135742 C-25.75563505 15.32960404 -21.29950886 11.79314414 -16.82519531 8.27807617 C-16.24906494 7.82505127 -15.67293457 7.37202637 -15.0793457 6.90527344 C-13.56005352 5.71330384 -12.03655321 4.52670322 -10.51269531 3.34057617 C-9.92667542 2.80563034 -9.34065552 2.27068451 -8.73687744 1.7195282 C-5.71230809 -0.15564919 -3.54534374 -0.02029777 0 0 Z " fill="#010101" transform="translate(717.5126953125,1.659423828125)"/>
<path d="M0 0 C1.46684897 0.0130803 2.93372883 0.02303297 4.40061951 0.03001404 C8.23351725 0.05655038 12.06451341 0.12513928 15.89666748 0.20294189 C19.81821984 0.27496895 23.74008408 0.30660894 27.66210938 0.34179688 C35.33679792 0.41653191 43.00992789 0.53576078 50.68359375 0.68359375 C52.1690318 19.51055357 53.64518653 38.33766567 54.87109375 57.18359375 C54.95472168 58.45017822 55.03834961 59.7167627 55.12451172 61.02172852 C55.19943848 62.19920654 55.27436523 63.37668457 55.3515625 64.58984375 C55.44860474 66.11061523 55.44860474 66.11061523 55.54760742 67.66210938 C55.69781307 70.99953329 55.68359375 74.34279143 55.68359375 77.68359375 C41.16359375 77.68359375 26.64359375 77.68359375 11.68359375 77.68359375 C11.68359375 73.06359375 11.68359375 68.44359375 11.68359375 63.68359375 C3.97121838 63.56489334 -3.73816775 63.49448497 -11.45127296 63.50481129 C-15.0346131 63.50776767 -18.615432 63.49107253 -22.19824219 63.42651367 C-42.48533345 62.48641686 -42.48533345 62.48641686 -59.76113892 71.65522766 C-60.99714113 72.9513049 -62.16305411 74.31344904 -63.31640625 75.68359375 C-65.31640625 77.68359375 -65.31640625 77.68359375 -67.22732544 77.92410278 C-68.00453949 77.91966156 -68.78175354 77.91522034 -69.58251953 77.91064453 C-70.46328156 77.91049347 -71.34404358 77.91034241 -72.25149536 77.91018677 C-73.20361908 77.8998642 -74.1557428 77.88954163 -75.13671875 77.87890625 C-76.59741287 77.87466141 -76.59741287 77.87466141 -78.08761597 77.87033081 C-81.20566974 77.85911288 -84.32343893 77.83400545 -87.44140625 77.80859375 C-89.55207919 77.79856603 -91.66275663 77.78943982 -93.7734375 77.78125 C-98.9545246 77.75916833 -104.1354451 77.72567504 -109.31640625 77.68359375 C-105.62768017 73.96171321 -101.86115276 70.45688215 -97.87890625 67.05859375 C-97.26764893 66.53571777 -96.6563916 66.0128418 -96.02661133 65.47412109 C-91.36907106 61.517748 -86.60653785 57.71672435 -81.77954102 53.97021484 C-77.05348682 50.29272326 -72.42694743 46.50458428 -67.81640625 42.68359375 C-62.01285033 37.87657506 -56.15401822 33.15662186 -50.21191406 28.5222168 C-45.72033425 25.01552977 -41.30321026 21.42475511 -36.90234375 17.8046875 C-32.73958782 14.39022153 -28.540903 11.02131567 -24.31640625 7.68359375 C-23.75805588 7.11798233 -23.19970551 6.55237091 -22.62443542 5.96961975 C-15.72474318 -0.44253952 -8.89546939 -0.23471729 0 0 Z " fill="#010101" transform="translate(266.31640625,1.31640625)"/>
<path d="M0 0 C0 0.33 0 0.66 0 1 C-0.57741943 1.06469482 -1.15483887 1.12938965 -1.74975586 1.19604492 C-28.34750075 4.26491417 -56.62730371 10.89193111 -75 32 C-81.03180358 39.93792781 -86.27804608 48.73440409 -85 59 C-82.85801653 65.29995138 -78.46179269 69.27474175 -72.6015625 72.1953125 C-59.17434511 77.77277203 -45.70476771 78.10737904 -31.3125 78.5625 C-30.02666016 78.60568359 -28.74082031 78.64886719 -27.41601562 78.69335938 C-24.27742506 78.79836798 -21.13876996 78.90052405 -18 79 C-18 79.33 -18 79.66 -18 80 C-92.25 80 -166.5 80 -243 80 C-242.505 79.01 -242.505 79.01 -242 78 C-176.165 78.495 -176.165 78.495 -109 79 C-108.34 77.02 -107.68 75.04 -107 73 C-105.87084961 70.88183594 -105.87084961 70.88183594 -104.65234375 68.984375 C-104.21212891 68.29085937 -103.77191406 67.59734375 -103.31835938 66.8828125 C-102.86267578 66.17898437 -102.40699219 65.47515625 -101.9375 64.75 C-101.02933139 63.3285187 -100.12175105 61.90666134 -99.21484375 60.484375 C-98.81386475 59.86272461 -98.41288574 59.24107422 -97.99975586 58.60058594 C-96.94322862 56.9652373 -96.94322862 56.9652373 -96 55 C-116.46 55 -136.92 55 -158 55 C-157 53 -157 53 -154.98608398 52.12475586 C-154.08188721 51.82448486 -153.17769043 51.52421387 -152.24609375 51.21484375 C-151.18640381 50.85729004 -150.12671387 50.49973633 -149.03491211 50.13134766 C-147.84776611 49.73737793 -146.66062012 49.3434082 -145.4375 48.9375 C-142.82230548 48.04992502 -140.20775845 47.16058094 -137.59375 46.26953125 C-136.87037949 46.02366272 -136.14700897 45.77779419 -135.40171814 45.5244751 C-125.4882478 42.15263973 -115.59319021 38.72852044 -105.71047974 35.26760864 C-103.53044682 34.50655155 -101.34886091 33.7499283 -99.16574097 32.99777222 C-96.06364919 31.92855989 -92.96697592 30.8448521 -89.87109375 29.7578125 C-88.93370361 29.43830124 -87.99631348 29.11878998 -87.03051758 28.78959656 C-80.70535505 26.54450583 -76.98682107 24.22780414 -73.7109375 18.21484375 C-73.32679688 17.51939453 -72.94265625 16.82394531 -72.546875 16.10742188 C-72.16015625 15.39134766 -71.7734375 14.67527344 -71.375 13.9375 C-70.59210497 12.50858865 -69.80828531 11.08018343 -69.0234375 9.65234375 C-68.68231934 9.02320068 -68.34120117 8.39405762 -67.98974609 7.74584961 C-67.06766122 6.11935011 -66.03711748 4.55567621 -65 3 C-108.56 2.67 -152.12 2.34 -197 2 C-197 1.67 -197 1.34 -197 1 C-180.76430421 0.86643114 -164.52858618 0.73600781 -148.29283905 0.60884857 C-140.74583287 0.5496747 -133.19883577 0.48964028 -125.65185547 0.42724609 C-83.76693106 0.08158688 -41.88639534 -0.07207618 0 0 Z " fill="#F0F0F0" transform="translate(571,0)"/>
<path d="M0 0 C0.88022827 0.00091141 1.76045654 0.00182281 2.6673584 0.00276184 C3.569823 -0.00152328 4.4722876 -0.00580841 5.40209961 -0.01022339 C7.31196248 -0.01597164 9.22184726 -0.01646332 11.13171387 -0.01213074 C14.06194173 -0.0089695 16.99116164 -0.0324279 19.92126465 -0.05778503 C21.77412795 -0.06005776 23.62699398 -0.06076165 25.4798584 -0.05973816 C26.36008667 -0.06894791 27.24031494 -0.07815765 28.1472168 -0.08764648 C30.61462402 -0.06877136 30.61462402 -0.06877136 34.5736084 0.30354309 C35.2336084 1.29354309 35.8936084 2.28354309 36.5736084 3.30354309 C33.86147751 7.12061619 32.0787135 9.00072655 27.5736084 10.30354309 C24.49094193 10.56450806 21.42709148 10.53644042 18.33532715 10.49885559 C17.01417656 10.49461075 17.01417656 10.49461075 15.66633606 10.49028015 C12.86445295 10.47912142 10.06289424 10.4540248 7.2611084 10.42854309 C5.35681615 10.41850772 3.45251888 10.40938284 1.54821777 10.40119934 C-3.11010957 10.37919618 -7.76819566 10.34469603 -12.4263916 10.30354309 C-11.80643082 9.0094502 -11.18022807 7.71834636 -10.5513916 6.42854309 C-10.20334473 5.70924622 -9.85529785 4.98994934 -9.4967041 4.24885559 C-7.06712863 -0.16694216 -4.78676854 0.05603666 0 0 Z " fill="#F6F6F6" transform="translate(874.4263916015625,26.696456909179688)"/>
<path d="M0 0 C0.1714391 2.1246203 0.33686595 4.24972589 0.5 6.375 C0.5928125 7.55835938 0.685625 8.74171875 0.78125 9.9609375 C1.0343552 14.63434415 1 19.31974446 1 24 C-8.9 24 -18.8 24 -29 24 C-23.36507937 18.36507937 -23.36507937 18.36507937 -20.765625 16.1328125 C-19.91037231 15.39756348 -19.91037231 15.39756348 -19.0378418 14.64746094 C-18.447854 14.14504883 -17.85786621 13.64263672 -17.25 13.125 C-16.63745361 12.60196289 -16.02490723 12.07892578 -15.39379883 11.54003906 C-1.81088025 0 -1.81088025 0 0 0 Z " fill="#F1F1F1" transform="translate(273,22)"/>
<path d="M0 0 C0.8679851 5.20107605 1.12463484 10.17143465 1.0625 15.4375 C1.041875 17.933125 1.02125 20.42875 1 23 C-8.9 23 -18.8 23 -29 23 C-6 0 -6 0 0 0 Z " fill="#F3F3F3" transform="translate(732,23)"/>
<path d="M0 0 C8.91 0 17.82 0 27 0 C27 8.58 27 17.16 27 26 C26.34 26.33 25.68 26.66 25 27 C25.02320313 26.19175781 25.04640625 25.38351563 25.0703125 24.55078125 C25.08835937 23.48214844 25.10640625 22.41351562 25.125 21.3125 C25.14820313 20.25675781 25.17140625 19.20101563 25.1953125 18.11328125 C24.99158368 14.86584392 24.64285333 12.80859058 23 10 C20.70094475 8.71959337 20.70094475 8.71959337 18 8 C17.13761719 7.67 16.27523437 7.34 15.38671875 7 C9.96659953 4.99196741 4.6380296 3.276535 -1 2 C-0.67 1.34 -0.34 0.68 0 0 Z " fill="#F3F3F3" transform="translate(933,0)"/>
<path d="M0 0 C7.92 0 15.84 0 24 0 C24.33 0.99 24.66 1.98 25 3 C21.40588985 3.90329848 18.90585189 3.99215599 15.3125 3.125 C10.22648415 1.99307467 5.18851267 1.41949677 0 1 C0 0.67 0 0.34 0 0 Z " fill="#DEDEDE" transform="translate(605,0)"/>
</svg>
