<?xml version="1.0" encoding="UTF-8"?>
<!DOCTYPE svg PUBLIC "-//W3C//DTD SVG 1.1//EN" "http://www.w3.org/Graphics/SVG/1.1/DTD/svg11.dtd">
<svg xmlns="http://www.w3.org/2000/svg" version="1.1" width="2928px" height="244px" style="shape-rendering:geometricPrecision; text-rendering:geometricPrecision; image-rendering:optimizeQuality; fill-rule:evenodd; clip-rule:evenodd" xmlns:xlink="http://www.w3.org/1999/xlink">
<g><path style="opacity:1" fill="#ffffff" d="M -0.5,-0.5 C 601.167,-0.5 1202.83,-0.5 1804.5,-0.5C 1744.19,2.57672 1686.19,16.0767 1630.5,40C 1582.01,61.6424 1540.85,92.809 1507,133.5C 1495.64,147.226 1488.3,162.893 1485,180.5C 1483.77,203.214 1493.27,219.714 1513.5,230C 1526.44,236.036 1539.78,240.536 1553.5,243.5C 1502.83,243.5 1452.17,243.5 1401.5,243.5C 1401.5,243.167 1401.5,242.833 1401.5,242.5C 1419.88,219.452 1437.88,196.119 1455.5,172.5C 1385.83,171.833 1316.17,171.167 1246.5,170.5C 1349.65,139.171 1451.99,105.338 1553.5,69C 1556.3,67.2068 1558.8,65.0402 1561,62.5C 1576.69,44.9815 1592.19,27.3149 1607.5,9.5C 1473.17,8.33334 1338.83,8.16667 1204.5,9C 1186.7,29.4784 1169.03,49.9784 1151.5,70.5C 1150.96,70.56 1150.62,70.8933 1150.5,71.5C 1226.67,72.1667 1302.67,72.8333 1378.5,73.5C 1285.24,102.397 1191.58,129.897 1097.5,156C 1076.23,184.099 1055.56,212.599 1035.5,241.5C 1034.66,241.842 1034.33,242.508 1034.5,243.5C 1031.17,243.5 1027.83,243.5 1024.5,243.5C 1030.62,165.176 1036.62,86.8429 1042.5,8.5C 978.497,8.1667 914.497,8.50004 850.5,9.5C 819.547,33.9751 787.88,57.4751 755.5,80C 671.265,134.275 587.265,188.775 503.5,243.5C 499.5,243.5 495.5,243.5 491.5,243.5C 550.33,165.2 609.664,87.2004 669.5,9.5C 619.833,8.16667 570.167,8.16667 520.5,9.5C 491.19,52.1332 461.523,94.4666 431.5,136.5C 400.145,94.3039 369.145,51.8039 338.5,9C 276.833,8.33333 215.167,8.33333 153.5,9C 104.78,86.9433 56.4464,165.11 8.5,243.5C 5.5,243.5 2.5,243.5 -0.5,243.5C -0.5,162.167 -0.5,80.8333 -0.5,-0.5 Z"/></g>
<g><path style="opacity:1" fill="#ffffff" d="M 1804.5,-0.5 C 1820.5,-0.5 1836.5,-0.5 1852.5,-0.5C 1882.57,0.412431 1911.9,5.91243 1940.5,16C 1977.68,32.5568 1987.02,59.0568 1968.5,95.5C 1924.5,96.8333 1880.5,96.8333 1836.5,95.5C 1842.24,81.9933 1838.57,72.1599 1825.5,66C 1788.86,58.0633 1753.2,61.3966 1718.5,76C 1691.3,87.6787 1667.47,104.179 1647,125.5C 1640.46,133.25 1635.46,141.917 1632,151.5C 1630.19,162.696 1634.69,170.196 1645.5,174C 1651.01,175.969 1656.68,177.303 1662.5,178C 1708.78,181.614 1751.78,171.614 1791.5,148C 1797.71,143.734 1803.71,139.234 1809.5,134.5C 1852.67,134.168 1895.67,134.501 1938.5,135.5C 1901.69,171.729 1858.69,198.562 1809.5,216C 1772.64,229.021 1734.97,238.187 1696.5,243.5C 1648.83,243.5 1601.17,243.5 1553.5,243.5C 1539.78,240.536 1526.44,236.036 1513.5,230C 1493.27,219.714 1483.77,203.214 1485,180.5C 1488.3,162.893 1495.64,147.226 1507,133.5C 1540.85,92.809 1582.01,61.6424 1630.5,40C 1686.19,16.0767 1744.19,2.57672 1804.5,-0.5 Z"/></g>
<g><path style="opacity:1" fill="#ffffff" d="M 1852.5,-0.5 C 2210.83,-0.5 2569.17,-0.5 2927.5,-0.5C 2927.5,17.8333 2927.5,36.1667 2927.5,54.5C 2922.55,43.0424 2914.55,34.2091 2903.5,28C 2885.53,19.0904 2866.53,13.7571 2846.5,12C 2839.18,11.2231 2831.84,10.5564 2824.5,10C 2723.83,9.16668 2623.17,9.33334 2522.5,10.5C 2476.74,89.7021 2428.74,167.369 2378.5,243.5C 2371.83,243.5 2365.17,243.5 2358.5,243.5C 2358.82,236.978 2358.49,230.645 2357.5,224.5C 2355.21,152.509 2353.21,80.5086 2351.5,8.5C 2291.83,8.33334 2232.17,8.50001 2172.5,9C 2140.4,35.5446 2107.4,60.8779 2073.5,85C 1995.26,138.088 1916.93,190.921 1838.5,243.5C 1791.17,243.5 1743.83,243.5 1696.5,243.5C 1734.97,238.187 1772.64,229.021 1809.5,216C 1858.69,198.562 1901.69,171.729 1938.5,135.5C 1939.04,135.44 1939.38,135.107 1939.5,134.5C 1896,133.169 1852.67,133.169 1809.5,134.5C 1803.71,139.234 1797.71,143.734 1791.5,148C 1751.78,171.614 1708.78,181.614 1662.5,178C 1656.68,177.303 1651.01,175.969 1645.5,174C 1634.69,170.196 1630.19,162.696 1632,151.5C 1635.46,141.917 1640.46,133.25 1647,125.5C 1667.47,104.179 1691.3,87.6787 1718.5,76C 1753.2,61.3966 1788.86,58.0633 1825.5,66C 1838.57,72.1599 1842.24,81.9933 1836.5,95.5C 1880.5,96.8333 1924.5,96.8333 1968.5,95.5C 1987.02,59.0568 1977.68,32.5568 1940.5,16C 1911.9,5.91243 1882.57,0.412431 1852.5,-0.5 Z"/></g>
<g><path style="opacity:1" fill="#ffffff" d="M 491.5,243.5 C 432.833,243.5 374.167,243.5 315.5,243.5C 285.556,197.715 255.389,152.049 225,106.5C 197.318,151.864 170.152,197.531 143.5,243.5C 98.5,243.5 53.5,243.5 8.5,243.5C 56.4464,165.11 104.78,86.9433 153.5,9C 215.167,8.33333 276.833,8.33333 338.5,9C 369.145,51.8039 400.145,94.3039 431.5,136.5C 461.523,94.4666 491.19,52.1332 520.5,9.5C 570.167,8.16667 619.833,8.16667 669.5,9.5C 609.664,87.2004 550.33,165.2 491.5,243.5 Z"/></g>
<g><path style="opacity:1" fill="#ffffff" d="M 1024.5,243.5 C 982.833,243.5 941.167,243.5 899.5,243.5C 899.35,226.487 899.684,209.487 900.5,192.5C 844.166,192.333 787.832,192.5 731.5,193C 706.752,209.362 682.419,226.196 658.5,243.5C 606.833,243.5 555.167,243.5 503.5,243.5C 587.265,188.775 671.265,134.275 755.5,80C 787.88,57.4751 819.547,33.9751 850.5,9.5C 914.497,8.50004 978.497,8.1667 1042.5,8.5C 1036.62,86.8429 1030.62,165.176 1024.5,243.5 Z"/></g>
<g><path style="opacity:1" fill="#ffffff" d="M 1246.5,170.5 C 1245.53,170.987 1244.53,171.487 1243.5,172C 1314.17,172.5 1384.83,172.667 1455.5,172.5C 1437.88,196.119 1419.88,219.452 1401.5,242.5C 1279.33,242.833 1157.33,242.5 1035.5,241.5C 1055.56,212.599 1076.23,184.099 1097.5,156C 1191.58,129.897 1285.24,102.397 1378.5,73.5C 1379.92,73.2914 1381.26,72.7914 1382.5,72C 1305.33,71.833 1228.33,71.333 1151.5,70.5C 1169.03,49.9784 1186.7,29.4784 1204.5,9C 1338.83,8.16667 1473.17,8.33334 1607.5,9.5C 1592.19,27.3149 1576.69,44.9815 1561,62.5C 1558.8,65.0402 1556.3,67.2068 1553.5,69C 1451.99,105.338 1349.65,139.171 1246.5,170.5 Z"/></g>
<g><path style="opacity:1" fill="#ffffff" d="M 2357.5,224.5 C 2357.5,230.5 2357.5,236.5 2357.5,242.5C 2315.83,242.5 2274.17,242.5 2232.5,242.5C 2232.81,239.287 2232.48,236.287 2231.5,233.5C 2231.35,220.827 2231.01,208.161 2230.5,195.5C 2167.5,195.333 2104.5,195.5 2041.5,196C 2019.26,211.61 1997.26,227.443 1975.5,243.5C 1929.83,243.5 1884.17,243.5 1838.5,243.5C 1916.93,190.921 1995.26,138.088 2073.5,85C 2107.4,60.8779 2140.4,35.5446 2172.5,9C 2232.17,8.50001 2291.83,8.33334 2351.5,8.5C 2353.21,80.5086 2355.21,152.509 2357.5,224.5 Z"/></g>
<g><path style="opacity:1" fill="#ffffff" d="M 2927.5,54.5 C 2927.5,60.8333 2927.5,67.1667 2927.5,73.5C 2921.4,92.8303 2910.4,108.997 2894.5,122C 2867.73,143.38 2837.4,157.213 2803.5,163.5C 2802.32,163.281 2801.32,163.614 2800.5,164.5C 2800.62,165.107 2800.96,165.44 2801.5,165.5C 2808.5,190.824 2815.5,216.158 2822.5,241.5C 2776,242.499 2729.34,242.832 2682.5,242.5C 2676.66,218.804 2670.66,195.137 2664.5,171.5C 2631.5,170.167 2598.5,170.167 2565.5,171.5C 2549.16,195.529 2532.82,219.529 2516.5,243.5C 2470.5,243.5 2424.5,243.5 2378.5,243.5C 2428.74,167.369 2476.74,89.7021 2522.5,10.5C 2623.17,9.33334 2723.83,9.16668 2824.5,10C 2831.84,10.5564 2839.18,11.2231 2846.5,12C 2866.53,13.7571 2885.53,19.0904 2903.5,28C 2914.55,34.2091 2922.55,43.0424 2927.5,54.5 Z"/></g>
<g><path style="opacity:1" fill="transparent" d="M 1151.5,70.5 C 1228.33,71.333 1305.33,71.833 1382.5,72C 1381.26,72.7914 1379.92,73.2914 1378.5,73.5C 1302.67,72.8333 1226.67,72.1667 1150.5,71.5C 1150.62,70.8933 1150.96,70.56 1151.5,70.5 Z"/></g>
<g><path style="opacity:1" fill="#ffffff" d="M 2626.5,71.5 C 2669.5,71.3333 2712.5,71.5 2755.5,72C 2762.65,72.5804 2769.65,73.9137 2776.5,76C 2783.19,80.1189 2784.36,85.6189 2780,92.5C 2774.96,99.1962 2768.46,104.029 2760.5,107C 2754.29,109.136 2747.96,110.802 2741.5,112C 2695.17,112.667 2648.83,112.667 2602.5,112C 2610.73,98.6132 2618.73,85.1132 2626.5,71.5 Z"/></g>
<g><path style="opacity:1" fill="#ffffff" d="M 2229.5,140.5 C 2195,140.832 2160.66,140.498 2126.5,139.5C 2161.02,115.489 2194.85,90.4889 2228,64.5C 2228.37,89.8383 2228.87,115.172 2229.5,140.5 Z"/></g>
<g><path style="opacity:1" fill="#ffffff" d="M 2927.5,73.5 C 2927.5,130.167 2927.5,186.833 2927.5,243.5C 2892.83,243.5 2858.17,243.5 2823.5,243.5C 2823.67,242.508 2823.34,241.842 2822.5,241.5C 2815.5,216.158 2808.5,190.824 2801.5,165.5C 2802.17,164.833 2802.83,164.167 2803.5,163.5C 2837.4,157.213 2867.73,143.38 2894.5,122C 2910.4,108.997 2921.4,92.8303 2927.5,73.5 Z"/></g>
<g><path style="opacity:1" fill="#ffffff" d="M 913.5,68.5 C 914.139,69.0968 914.472,69.9302 914.5,71C 911.037,91.0727 908.37,111.239 906.5,131.5C 879.165,131.667 851.831,131.5 824.5,131C 855.177,111.471 884.844,90.6376 913.5,68.5 Z"/></g>
<g><path style="opacity:1" fill="#ffffff" d="M 315.5,243.5 C 258.167,243.5 200.833,243.5 143.5,243.5C 170.152,197.531 197.318,151.864 225,106.5C 255.389,152.049 285.556,197.715 315.5,243.5 Z"/></g>
<g><path style="opacity:1" fill="transparent" d="M 1809.5,134.5 C 1852.67,133.169 1896,133.169 1939.5,134.5C 1939.38,135.107 1939.04,135.44 1938.5,135.5C 1895.67,134.501 1852.67,134.168 1809.5,134.5 Z"/></g>
<g><path style="opacity:1" fill="transparent" d="M 2126.5,139.5 C 2160.66,140.498 2195,140.832 2229.5,140.5C 2195,141.83 2160.33,141.83 2125.5,140.5C 2125.62,139.893 2125.96,139.56 2126.5,139.5 Z"/></g>
<g><path style="opacity:1" fill="#ffffff" d="M 2870.5,163.5 C 2871.38,163.369 2872.04,163.702 2872.5,164.5C 2876.5,175.833 2884.17,183.5 2895.5,187.5C 2883.83,191.833 2875.83,199.833 2871.5,211.5C 2867.17,199.833 2859.17,191.833 2847.5,187.5C 2859.28,183.387 2866.95,175.387 2870.5,163.5 Z"/></g>
<g><path style="opacity:1" fill="transparent" d="M 2803.5,163.5 C 2802.83,164.167 2802.17,164.833 2801.5,165.5C 2800.96,165.44 2800.62,165.107 2800.5,164.5C 2801.32,163.614 2802.32,163.281 2803.5,163.5 Z"/></g>
<g><path style="opacity:1" fill="transparent" d="M 1246.5,170.5 C 1316.17,171.167 1385.83,171.833 1455.5,172.5C 1384.83,172.667 1314.17,172.5 1243.5,172C 1244.53,171.487 1245.53,170.987 1246.5,170.5 Z"/></g>
<g><path style="opacity:1" fill="#ffffff" d="M 2682.5,242.5 C 2682.5,242.833 2682.5,243.167 2682.5,243.5C 2627.17,243.5 2571.83,243.5 2516.5,243.5C 2532.82,219.529 2549.16,195.529 2565.5,171.5C 2598.5,170.167 2631.5,170.167 2664.5,171.5C 2670.66,195.137 2676.66,218.804 2682.5,242.5 Z"/></g>
<g><path style="opacity:1" fill="#ffffff" d="M 899.5,243.5 C 819.167,243.5 738.833,243.5 658.5,243.5C 682.419,226.196 706.752,209.362 731.5,193C 787.832,192.5 844.166,192.333 900.5,192.5C 899.684,209.487 899.35,226.487 899.5,243.5 Z"/></g>
<g><path style="opacity:1" fill="#ffffff" d="M 2231.5,233.5 C 2231.5,236.833 2231.5,240.167 2231.5,243.5C 2146.17,243.5 2060.83,243.5 1975.5,243.5C 1997.26,227.443 2019.26,211.61 2041.5,196C 2104.5,195.5 2167.5,195.333 2230.5,195.5C 2231.01,208.161 2231.35,220.827 2231.5,233.5 Z"/></g>
<g><path style="opacity:1" fill="#ffffff" d="M 1035.5,241.5 C 1157.33,242.5 1279.33,242.833 1401.5,242.5C 1401.5,242.833 1401.5,243.167 1401.5,243.5C 1279.17,243.5 1156.83,243.5 1034.5,243.5C 1034.33,242.508 1034.66,241.842 1035.5,241.5 Z"/></g>
<g><path style="opacity:1" fill="#ffffff" d="M 2357.5,224.5 C 2358.49,230.645 2358.82,236.978 2358.5,243.5C 2316.17,243.5 2273.83,243.5 2231.5,243.5C 2231.5,240.167 2231.5,236.833 2231.5,233.5C 2232.48,236.287 2232.81,239.287 2232.5,242.5C 2274.17,242.5 2315.83,242.5 2357.5,242.5C 2357.5,236.5 2357.5,230.5 2357.5,224.5 Z"/></g>
<g><path style="opacity:1" fill="#ffffff" d="M 2822.5,241.5 C 2823.34,241.842 2823.67,242.508 2823.5,243.5C 2776.5,243.5 2729.5,243.5 2682.5,243.5C 2682.5,243.167 2682.5,242.833 2682.5,242.5C 2729.34,242.832 2776,242.499 2822.5,241.5 Z"/></g>
</svg>
