<?xml version="1.0" encoding="UTF-8"?>
<!DOCTYPE svg PUBLIC "-//W3C//DTD SVG 1.1//EN" "http://www.w3.org/Graphics/SVG/1.1/DTD/svg11.dtd">
<svg xmlns="http://www.w3.org/2000/svg" version="1.1" width="2400px" height="200px" style="shape-rendering:geometricPrecision; text-rendering:geometricPrecision; image-rendering:optimizeQuality; fill-rule:evenodd; clip-rule:evenodd" xmlns:xlink="http://www.w3.org/1999/xlink">
<g><path style="opacity:1" fill="#000000" d="M -0.5,-0.5 C -0.166667,-0.5 0.166667,-0.5 0.5,-0.5C 0.31468,0.170143 -0.0186536,0.170143 -0.5,-0.5 Z"/></g>
<g><path style="opacity:1" fill="#3b3b3b" d="M 1455.5,-0.5 C 1465.17,-0.5 1474.83,-0.5 1484.5,-0.5C 1479.36,0.488077 1474.03,0.821411 1468.5,0.5C 1464.76,0.240789 1461.09,0.574122 1457.5,1.5C 1456.48,1.14451 1455.81,0.477842 1455.5,-0.5 Z"/></g>
<g><path style="opacity:1" fill="#000000" d="M 1484.5,-0.5 C 1494.5,-0.5 1504.5,-0.5 1514.5,-0.5C 1524.31,0.903292 1534.31,1.40329 1544.5,1C 1543.94,0.617425 1543.61,0.117425 1543.5,-0.5C 1544.5,-0.5 1545.5,-0.5 1546.5,-0.5C 1559.05,2.70849 1571.72,5.87515 1584.5,9C 1596.07,13.3665 1606.24,19.8665 1615,28.5C 1625.15,45.8935 1624.65,63.0602 1613.5,80C 1577.17,80.6667 1540.83,80.6667 1504.5,80C 1504.17,79.6667 1503.83,79.3333 1503.5,79C 1508.39,68.6052 1505.73,60.6052 1495.5,55C 1461.77,48.4249 1429.44,52.7582 1398.5,68C 1380.52,77.499 1364.52,89.6657 1350.5,104.5C 1347.44,108.382 1344.61,112.382 1342,116.5C 1335.48,133.339 1341.31,142.505 1359.5,144C 1397.63,147.603 1433.3,139.936 1466.5,121C 1471.79,117.38 1476.79,113.38 1481.5,109C 1517.83,108.5 1554.17,108.333 1590.5,108.5C 1590.65,109.552 1590.48,110.552 1590,111.5C 1554.17,146.352 1512,170.852 1463.5,185C 1444.17,190.397 1424.84,195.23 1405.5,199.5C 1358.17,199.5 1310.83,199.5 1263.5,199.5C 1256.07,196.027 1248.4,192.861 1240.5,190C 1217.04,176.978 1210.21,157.811 1220,132.5C 1222.56,126.125 1225.73,120.125 1229.5,114.5C 1242.33,97.5046 1257,82.338 1273.5,69C 1324.34,31.6074 1381.34,9.10741 1444.5,1.5C 1452.55,2.83061 1460.55,2.49727 1468.5,0.5C 1474.03,0.821411 1479.36,0.488077 1484.5,-0.5 Z"/></g>
<g><path style="opacity:1" fill="#000000" d="M 2398.5,-0.5 C 2398.83,-0.5 2399.17,-0.5 2399.5,-0.5C 2399.5,-0.166667 2399.5,0.166667 2399.5,0.5C 2399.17,0.166667 2398.83,-0.166667 2398.5,-0.5 Z"/></g>
<g><path style="opacity:1" fill="#282928" d="M 1514.5,-0.5 C 1524.17,-0.5 1533.83,-0.5 1543.5,-0.5C 1543.61,0.117425 1543.94,0.617425 1544.5,1C 1534.31,1.40329 1524.31,0.903292 1514.5,-0.5 Z"/></g>
<g><path style="opacity:1" fill="#141414" d="M 1452.5,-0.5 C 1453.5,-0.5 1454.5,-0.5 1455.5,-0.5C 1455.81,0.477842 1456.48,1.14451 1457.5,1.5C 1461.09,0.574122 1464.76,0.240789 1468.5,0.5C 1460.55,2.49727 1452.55,2.83061 1444.5,1.5C 1447.43,1.43487 1450.09,0.768202 1452.5,-0.5 Z"/></g>
<g><path style="opacity:1" fill="#000000" d="M 404.5,199.5 C 354.833,199.5 305.167,199.5 255.5,199.5C 255.108,197.821 254.608,196.154 254,194.5C 230.637,159.969 207.471,125.303 184.5,90.5C 163.762,124.301 143.262,158.301 123,192.5C 121.589,194.65 120.755,196.984 120.5,199.5C 82.1667,199.5 43.8333,199.5 5.5,199.5C 44.6371,135.908 83.8038,72.2413 123,8.5C 123.903,7.29857 125.069,6.46524 126.5,6C 176.94,5.37211 227.273,5.37211 277.5,6C 302.982,40.4971 328.316,74.9971 353.5,109.5C 377.3,75.1991 401.3,41.0324 425.5,7C 466.749,5.34496 508.083,5.01163 549.5,6C 550.711,7.11314 550.711,8.2798 549.5,9.5C 500.332,72.3164 451.999,135.65 404.5,199.5 Z"/></g>
<g><path style="opacity:1" fill="#000000" d="M 842.5,199.5 C 806.833,199.5 771.167,199.5 735.5,199.5C 735.978,185.838 736.311,172.171 736.5,158.5C 690.832,158.333 645.165,158.5 599.5,159C 580.595,172.754 561.595,186.254 542.5,199.5C 498.833,199.5 455.167,199.5 411.5,199.5C 414.221,196.741 417.221,194.241 420.5,192C 482.664,151.751 544.997,111.751 607.5,72C 637.684,51.4824 667.017,29.8158 695.5,7C 722.44,5.84596 749.44,5.34596 776.5,5.5C 802.875,5.50431 829.208,5.83764 855.5,6.5C 855.833,7.5 856.167,8.5 856.5,9.5C 851.896,72.2585 846.563,134.925 840.5,197.5C 841.243,198.182 841.909,198.849 842.5,199.5 Z M 746.5,58.5 C 746.164,74.5236 744.164,90.5236 740.5,106.5C 720.497,106.667 700.497,106.5 680.5,106C 693.539,96.6386 706.873,87.6386 720.5,79C 729.353,72.3029 738.02,65.4695 746.5,58.5 Z"/></g>
<g><path style="opacity:1" fill="#000000" d="M 1150.5,199.5 C 1048.83,199.5 947.167,199.5 845.5,199.5C 863.009,175.166 880.676,151 898.5,127C 974.617,106.296 1050.28,83.9622 1125.5,60C 1064.5,59.6667 1003.5,59.3333 942.5,59C 942.167,58.6667 941.833,58.3333 941.5,58C 956.57,41.2698 971.236,24.2698 985.5,7C 1039.08,5.83732 1092.75,5.33732 1146.5,5.5C 1202.71,5.8535 1258.87,5.8535 1315,5.5C 1316.81,5.49337 1318.31,6.16003 1319.5,7.5C 1306.51,21.9932 1293.68,36.6599 1281,51.5C 1278.17,53.3677 1275.67,55.5344 1273.5,58C 1192.74,86.5283 1111.41,113.528 1029.5,139C 1084.28,139.21 1139.28,140.043 1194.5,141.5C 1179.8,160.94 1165.13,180.273 1150.5,199.5 Z"/></g>
<g><path style="opacity:1" fill="#000000" d="M 1935.5,199.5 C 1899.5,199.5 1863.5,199.5 1827.5,199.5C 1827.68,186.813 1827.35,174.147 1826.5,161.5C 1775.5,161.333 1724.5,161.5 1673.5,162C 1655.92,174.277 1638.59,186.777 1621.5,199.5C 1582.5,199.5 1543.5,199.5 1504.5,199.5C 1568.22,156.982 1631.89,114.148 1695.5,71C 1724.49,49.8308 1753.15,28.1641 1781.5,6C 1804.17,5.83333 1826.83,5.66667 1849.5,5.5C 1875.62,5.54926 1901.62,5.88259 1927.5,6.5C 1930.06,70.8997 1932.73,135.233 1935.5,199.5 Z M 1824.5,55.5 C 1825.5,55.4701 1826.16,55.9701 1826.5,57C 1826.4,75.7775 1826.4,94.6109 1826.5,113.5C 1799.78,114.616 1773.11,114.783 1746.5,114C 1772.75,94.7226 1798.75,75.2226 1824.5,55.5 Z"/></g>
<g><path style="opacity:1" fill="#000000" d="M 2399.5,39.5 C 2399.5,48.5 2399.5,57.5 2399.5,66.5C 2391.84,82.9206 2380.51,96.4206 2365.5,107C 2344.74,121.045 2322.07,130.712 2297.5,136C 2303.16,157.47 2309.49,178.636 2316.5,199.5C 2276.5,199.5 2236.5,199.5 2196.5,199.5C 2196.61,198.883 2196.94,198.383 2197.5,198C 2192.1,178.882 2187.1,159.716 2182.5,140.5C 2156.17,140.5 2129.83,140.5 2103.5,140.5C 2103.65,141.552 2103.48,142.552 2103,143.5C 2093.39,157.747 2083.56,171.747 2073.5,185.5C 2070.39,189.938 2067.72,194.604 2065.5,199.5C 2026.17,199.5 1986.83,199.5 1947.5,199.5C 1989.1,137.306 2028.44,73.6397 2065.5,8.5C 2066.5,7.66667 2067.5,6.83333 2068.5,6C 2144.78,5.38059 2221.11,5.38059 2297.5,6C 2324.39,5.40207 2350.39,9.73541 2375.5,19C 2385.51,23.5117 2393.51,30.345 2399.5,39.5 Z M 2153.5,59.5 C 2187.17,59.3333 2220.83,59.5 2254.5,60C 2261.33,60.0369 2267.99,61.0369 2274.5,63C 2277.25,64.0848 2278.92,66.0848 2279.5,69C 2276.6,76.9003 2271.27,82.567 2263.5,86C 2259.32,87.7961 2254.98,89.1294 2250.5,90C 2212.17,90.6667 2173.83,90.6667 2135.5,90C 2141.7,79.8772 2147.7,69.7105 2153.5,59.5 Z"/></g>
<g><path style="opacity:1" fill="#000000" d="M -0.5,198.5 C 0.166667,198.5 0.5,198.833 0.5,199.5C 0.166667,199.167 -0.166667,198.833 -0.5,198.5 Z"/></g>
</svg>
